<svg width="318" height="318" viewBox="0 0 318 318" fill="none" xmlns="http://www.w3.org/2000/svg">
<g clip-path="url(#clip0_1_4965)">
<path d="M213.484 252.81C211.099 258.64 195.093 257.898 193.238 262.88C191.383 267.862 207.707 267.385 207.177 273.639C206.647 279.893 196.789 280.847 179.087 281.854C161.385 282.861 157.463 287.525 139.761 293.302C122.059 299.079 114.268 291.606 104.357 286.2C94.499 280.847 75.578 290.705 69.642 282.384C63.706 274.01 79.871 271.042 94.128 267.809C108.438 264.523 101.972 262.986 101.601 256.043C101.548 254.612 101.972 253.499 102.767 252.598C106 249.1 115.381 249.047 126.617 249.259C140.768 249.577 144.319 244.86 164.035 245.284C182.214 245.655 210.728 246.768 213.325 251.485C213.643 251.909 213.696 252.333 213.484 252.81Z" fill="#99ADF9"/>
<path d="M241.15 263.145C240.991 263.463 240.726 263.781 240.408 264.152C238.129 266.643 230.656 268.18 224.667 268.286C217.247 268.339 209.509 267.862 209.244 263.357C209.032 258.852 228.006 258.587 234.631 259.329C240.355 259.859 242.157 261.184 241.15 263.145Z" fill="#99ADF9"/>
<path d="M94.499 262.403C94.393 262.668 94.181 262.933 93.916 263.198C92.114 265.159 86.231 266.431 81.514 266.484C75.684 266.537 69.536 266.166 69.377 262.509C69.218 258.905 84.164 258.693 89.358 259.276C93.863 259.753 95.347 260.813 94.499 262.403Z" fill="#99ADF9"/>
<path d="M189.422 290.652C184.228 292.719 164.83 292.825 164.883 290.281C164.883 289.963 164.989 289.645 165.201 289.38C166.632 287.366 172.568 286.253 177.921 286.041C184.228 285.829 188.521 286.518 190.429 287.525C192.178 288.479 191.913 289.645 189.422 290.652Z" fill="#99ADF9"/>
<path d="M139.92 284.345C135.15 286.094 119.992 285.67 120.098 282.543C120.098 282.172 120.204 281.801 120.363 281.43C121.635 278.992 125.61 278.091 130.168 277.932C135.468 277.72 139.814 278.568 141.563 279.575C143.789 280.794 143.842 282.861 139.92 284.345Z" fill="#7C99F2"/>
<path d="M198.697 254.612C195.888 255.99 185.659 255.884 185.712 254.082C185.712 253.87 185.765 253.658 185.871 253.446C186.666 252.068 189.793 251.326 192.655 251.22C195.994 251.114 198.273 251.644 199.227 252.386C200.181 253.075 200.022 253.923 198.697 254.612Z" fill="#7C99F2"/>
<path d="M195.941 273.586C193.662 274.699 185.288 274.593 185.341 273.162C185.341 273.003 185.394 272.791 185.5 272.632C186.136 271.519 188.733 270.883 191.065 270.83C193.821 270.724 195.676 271.201 196.471 271.784C197.16 272.367 197.054 273.056 195.941 273.586Z" fill="#7C99F2"/>
<path d="M170.607 272.685C146.545 279.31 110.452 268.286 110.77 261.979C110.823 261.184 111.141 260.495 111.724 259.859C115.858 255.301 132.712 254.029 148.029 254.93C165.996 256.043 178.133 258.905 183.433 261.979C188.256 264.682 182.903 269.293 170.607 272.685Z" fill="#7C99F2"/>
<path d="M109.498 274.434C107.219 275.706 98.739 275.6 98.845 273.957C98.845 273.745 98.898 273.586 99.004 273.374C99.64 272.102 102.237 271.413 104.569 271.307C107.325 271.201 109.18 271.678 109.975 272.367C110.717 273.056 110.611 273.851 109.498 274.434Z" fill="#7C99F2"/>
<path d="M186.772 88.192C186.772 88.192 185.394 83.899 190.164 83.634C194.934 83.422 190.164 76.373 194.934 72.292C199.704 68.211 205.375 70.013 205.587 75.472C205.799 80.931 204.898 84.323 205.587 85.701C206.276 87.079 208.29 83.21 210.781 85.913C213.272 88.616 197.849 140.821 197.849 140.821L189.475 138.754L186.772 88.192Z" fill="#D2E9FF"/>
<path d="M201.93 96.5128C199.651 97.5728 194.987 128.737 198.856 125.663C199.757 124.974 207.76 93.8098 201.93 96.5128Z" fill="#E3F0FF"/>
<path d="M241.415 63.6001C241.203 65.0841 240.832 66.4621 240.461 67.6811C236.751 78.9171 226.628 79.3411 226.469 80.8781C226.31 82.5741 233.783 88.1921 226.787 95.0291C219.791 101.866 205.534 93.1741 201.771 92.8561C196.471 92.4321 185.447 101.866 177.868 92.0611C172.992 85.7541 180.836 82.2031 179.034 80.4541C177.232 78.7051 163.134 78.3871 163.134 62.5401C163.134 62.2221 163.134 61.9041 163.134 61.5861C163.664 45.7391 177.762 46.8521 178.451 43.7251C179.14 40.5981 178.981 22.2601 201.241 21.4651C223.554 20.6701 222.865 43.2481 224.879 44.3081C226.999 45.4211 243.8 48.3361 241.415 63.6001Z" fill="#E3F0FF"/>
<path d="M223.713 76.7973C228.483 74.8363 235.638 71.3383 240.408 67.6813C236.698 78.9173 226.575 79.3413 226.416 80.8783C226.257 82.5743 233.73 88.1923 226.734 95.0293C219.738 101.866 205.481 93.1743 201.718 92.8563C196.418 92.4323 185.394 101.866 177.815 92.0613C172.939 85.7543 180.783 82.2033 178.981 80.4543C177.179 78.7053 163.081 78.3873 163.081 62.5403C164.3 65.0313 166.844 68.5823 172.303 71.0733C181.472 75.2603 187.938 70.5963 191.171 75.1013C194.404 79.6063 187.62 82.4153 190.641 85.0653C193.715 87.7153 198.485 81.0373 206.117 84.5883C213.802 88.1393 218.572 90.4713 221.593 87.2383C224.773 83.9523 216.929 79.6063 223.713 76.7973Z" fill="#D2E9FF"/>
<path d="M187.514 54.2713C187.514 54.2713 187.461 54.2183 187.302 54.1123C187.143 54.0063 186.984 53.8473 186.719 53.5823C186.242 53.1053 185.606 52.3633 185.076 51.3563C184.811 50.8793 184.546 50.2963 184.334 49.6603C184.122 49.0243 184.016 48.3353 183.91 47.5933C183.857 46.8513 183.857 46.1093 183.963 45.3673C184.016 44.9963 184.069 44.6253 184.175 44.2543C184.228 44.0423 184.228 43.9363 184.334 43.6183L184.493 43.0883C184.652 42.4523 185.076 41.6573 185.5 40.9683C185.924 40.3323 186.507 39.6963 187.09 39.2193C187.726 38.7423 188.362 38.3713 188.998 38.1063C189.634 37.8413 190.323 37.6823 190.906 37.5763C191.489 37.4703 192.072 37.4703 192.549 37.4703C193.026 37.4703 193.45 37.4703 193.821 37.5233C194.192 37.5763 194.457 37.5763 194.616 37.6293C194.828 37.6823 194.934 37.6823 194.934 37.6823C195.623 37.8413 196.047 38.4773 195.888 39.1663C195.729 39.8553 195.093 40.2793 194.404 40.1203H194.351H194.245C194.245 40.1203 194.192 40.1203 194.086 40.0673C193.927 40.0143 193.768 39.9613 193.45 39.9613C193.185 39.9083 192.867 39.8553 192.443 39.8553C192.072 39.8553 191.648 39.8023 191.171 39.8553C190.694 39.9083 190.217 39.9613 189.74 40.1733C189.263 40.3323 188.733 40.5443 188.309 40.8623C187.832 41.1803 187.408 41.6043 187.037 42.0813C186.666 42.5583 186.401 42.9823 186.136 43.7243L185.924 44.2013L185.818 44.6253C185.712 44.9433 185.606 45.2613 185.606 45.5793C185.5 46.2153 185.447 46.8513 185.447 47.4343C185.447 48.0173 185.553 48.6533 185.659 49.1833C185.765 49.7133 185.977 50.2433 186.189 50.6673C186.613 51.5683 187.143 52.2573 187.514 52.6813C187.726 52.8933 187.885 53.0523 187.991 53.1583C188.097 53.2643 188.15 53.3173 188.15 53.3173H188.203C188.415 53.5293 188.468 53.9003 188.256 54.1123C188.097 54.3773 187.779 54.4303 187.514 54.2713Z" fill="#D2E9FF"/>
<path d="M193.927 38.6895C193.927 38.6895 193.927 38.5835 193.98 38.3185C194.033 38.1065 194.139 37.7885 194.245 37.3645C194.51 36.5695 194.934 35.4565 195.835 34.2375C196.259 33.6545 196.842 33.0185 197.531 32.5415C198.22 32.0115 199.015 31.5875 199.863 31.2165C200.287 31.0575 200.764 30.9515 201.241 30.7925C201.718 30.6865 202.195 30.6335 202.672 30.5805C203.149 30.5275 203.626 30.5275 204.103 30.5275H204.474H204.527H204.686H204.739H204.898L205.534 30.5805C205.746 30.6335 205.905 30.6335 206.17 30.6865L206.965 30.8985C207.23 31.0045 207.495 31.0575 207.76 31.1635L208.449 31.4815C208.926 31.6935 209.35 31.9585 209.721 32.2765C210.145 32.5415 210.463 32.9125 210.834 33.2305C212.159 34.6085 212.901 36.2515 213.325 37.5765C213.749 38.9545 213.961 40.1205 214.067 40.9155C214.12 41.3395 214.12 41.6575 214.173 41.8695C214.173 42.1345 214.173 42.2405 214.173 42.2405C214.226 43.1945 213.484 43.9895 212.53 43.9895C211.576 44.0425 210.781 43.3005 210.781 42.3465V42.2935V42.1875C210.781 42.1875 210.781 42.1345 210.781 41.9755C210.781 41.8165 210.781 41.5515 210.728 41.2335C210.675 40.5975 210.569 39.5905 210.251 38.5305C209.933 37.4705 209.403 36.2515 208.555 35.2975C208.343 35.0855 208.131 34.8205 207.866 34.6085C207.601 34.3965 207.336 34.1845 207.071 34.0785L206.647 33.8135C206.488 33.7605 206.382 33.7075 206.223 33.6545L205.799 33.4955C205.64 33.4425 205.375 33.4425 205.216 33.3895L204.58 33.2835H204.421H204.368C204.262 33.2835 204.527 33.2835 204.474 33.2835H204.421H204.156C203.785 33.2835 203.414 33.2305 203.043 33.2835C202.672 33.3365 202.301 33.3365 201.983 33.3895C201.665 33.4955 201.294 33.5485 200.976 33.6545C200.34 33.8665 199.757 34.1315 199.28 34.5025C198.803 34.8205 198.379 35.2445 198.061 35.6685C197.372 36.5165 197.001 37.3645 196.789 38.0005C196.683 38.3185 196.63 38.5305 196.577 38.6895C196.524 38.8485 196.524 38.9015 196.524 38.9015V39.0075C196.365 39.6965 195.729 40.0675 195.04 39.9615C194.192 39.9615 193.821 39.3255 193.927 38.6895Z" fill="#D2E9FF"/>
<path d="M220.268 46.4808C220.268 46.4808 220.639 46.4808 221.222 46.5338C221.805 46.5868 222.6 46.6928 223.554 46.9578C224.508 47.2228 225.621 47.6468 226.681 48.4948C227.211 48.9188 227.688 49.3958 228.112 49.9788C228.324 50.2968 228.483 50.5618 228.642 50.9328L228.854 51.4098L228.96 51.9398C229.119 52.4698 229.278 53.2648 229.278 53.9008C229.331 54.5898 229.278 55.2258 229.119 55.8088C228.854 57.0278 228.377 58.0878 227.847 58.8828C227.317 59.6778 226.734 60.2608 226.363 60.6318C225.939 61.0028 225.674 61.2148 225.674 61.2148C225.409 61.4268 224.985 61.3738 224.773 61.1088C224.561 60.8438 224.614 60.4198 224.879 60.2078C224.826 60.2608 225.78 59.5188 226.575 58.0878C226.999 57.3988 227.317 56.4978 227.423 55.4908C227.476 55.0138 227.476 54.4838 227.423 54.0068C227.37 53.4768 227.264 53.1058 227.052 52.4698L226.946 52.0988L226.787 51.7808C226.681 51.5688 226.522 51.3568 226.416 51.1978C226.151 50.8268 225.78 50.5618 225.409 50.2968C224.614 49.8198 223.766 49.5018 222.971 49.3428C222.176 49.1838 221.54 49.1308 221.063 49.1308C220.586 49.1308 220.374 49.1308 220.374 49.1308C219.632 49.1308 218.996 48.5478 218.996 47.8058C218.943 47.1168 219.526 46.4808 220.268 46.4808Z" fill="#D2E9FF"/>
<path d="M185.076 52.9467C185.076 52.9467 185.023 52.9467 184.97 52.9467C184.864 52.9467 184.758 52.9997 184.599 53.0527C184.228 53.1587 183.751 53.3177 183.221 53.6887C182.956 53.8477 182.691 54.0597 182.479 54.3247C182.214 54.5897 182.002 54.9077 181.843 55.2787C181.684 55.6497 181.525 56.0207 181.419 56.4977C181.313 56.9217 181.26 57.4517 181.26 57.8757C181.26 58.4587 181.313 58.8297 181.419 59.2537C181.525 59.6777 181.684 60.1017 181.949 60.4727C182.426 61.2147 183.062 61.7447 183.698 62.1157C184.334 62.4867 184.917 62.6987 185.341 62.8047C185.765 62.9107 186.03 62.9637 185.977 62.9637C186.242 62.9637 186.454 63.2287 186.401 63.4937C186.401 63.7587 186.136 63.9707 185.871 63.9177C185.871 63.9177 185.553 63.9177 185.076 63.8117C184.599 63.7057 183.91 63.5467 183.062 63.2287C182.267 62.8577 181.366 62.2747 180.624 61.3737C180.253 60.8967 179.988 60.3667 179.776 59.8367C179.67 59.5717 179.617 59.2007 179.511 58.9357C179.405 58.6177 179.405 58.4057 179.352 58.0877C179.352 57.9287 179.299 57.8757 179.299 57.6107V57.1867C179.299 56.8687 179.299 56.6037 179.352 56.2857C179.405 55.7027 179.511 55.0667 179.723 54.5367C179.935 53.9537 180.2 53.4237 180.571 52.9997C180.889 52.5227 181.26 52.1517 181.684 51.8337C182.426 51.1977 183.168 50.8797 183.698 50.6677C183.963 50.5617 184.175 50.5087 184.334 50.4557C184.493 50.4027 184.599 50.4027 184.599 50.4027C185.341 50.2437 186.083 50.6677 186.242 51.4097C186.401 52.1517 185.977 52.8937 185.235 53.0527C185.182 52.9467 185.129 52.9467 185.076 52.9467Z" fill="#D2E9FF"/>
<path d="M217.565 68.9527C217.565 68.9527 217.565 69.3237 217.459 69.9067C217.353 70.4897 217.194 71.2847 216.876 72.2387C216.558 73.1927 216.081 74.3057 215.18 75.3127C214.756 75.7897 214.226 76.2667 213.59 76.6377C213.272 76.7967 212.954 77.0087 212.636 77.1147L212.106 77.2737L211.629 77.3797C211.099 77.5387 210.304 77.5917 209.668 77.5917C208.979 77.5917 208.343 77.4857 207.76 77.3797C206.541 77.0617 205.534 76.5317 204.739 75.9487C203.944 75.3657 203.414 74.7827 203.043 74.3587C202.672 73.9347 202.513 73.6697 202.513 73.6167C202.301 73.3517 202.407 72.9277 202.672 72.7157C202.937 72.5037 203.361 72.6097 203.573 72.8747C203.573 72.8217 204.209 73.7757 205.64 74.6767C206.329 75.1007 207.23 75.5247 208.184 75.6837C208.661 75.7897 209.191 75.7897 209.668 75.7367C210.198 75.6837 210.569 75.6307 211.205 75.4187L211.576 75.3127L211.894 75.1537C212.106 75.0477 212.318 74.9417 212.477 74.7827C212.848 74.5177 213.166 74.1467 213.431 73.8287C213.961 73.0867 214.279 72.2387 214.491 71.4437C214.703 70.6487 214.756 70.0127 214.809 69.5357C214.862 69.0587 214.809 68.8467 214.809 68.8467C214.809 68.1047 215.445 67.5217 216.187 67.5217C216.982 67.5747 217.618 68.1577 217.565 68.9527Z" fill="#D2E9FF"/>
<path d="M175.483 112.784L173.257 106.583C173.257 106.583 178.398 105.788 175.695 99.0567C174.158 95.2937 169.812 98.2617 169.812 98.2617C169.812 98.2617 169.07 92.8027 163.399 94.0217C158.947 94.9757 158.841 102.131 160.59 104.41C162.286 106.689 164.035 106.477 164.035 106.477C164.035 106.477 160.325 106.371 160.908 109.763C161.491 113.155 164.406 113.314 166.632 112.201C167.692 111.671 168.487 110.346 168.487 110.346L173.31 114.321C173.734 114.692 174.37 114.745 174.9 114.48C175.483 114.215 175.748 113.473 175.483 112.784Z" fill="#D2E9FF"/>
<path d="M228.377 126.671C228.165 127.678 227.794 128.579 227.37 129.056C226.098 130.54 224.084 130.699 224.084 130.699C224.084 130.699 225.886 131.706 224.561 133.879C223.554 135.469 220.586 134.515 219.791 133.508C218.943 132.501 218.943 131.335 218.943 131.335L215.339 134.409C214.756 134.939 213.802 134.886 213.272 134.25C212.795 133.72 212.795 132.872 213.272 132.342L213.749 131.812L216.664 128.367C216.664 128.367 212.53 126.671 214.014 123.597C215.339 120.788 217.989 122.113 218.678 122.855C219.314 123.544 219.42 124.71 219.42 124.71C219.42 124.71 220.639 119.993 225.038 121.053C228.324 121.795 228.801 124.498 228.377 126.671Z" fill="#D2E9FF"/>
<path d="M115.699 191.49C116.547 192.656 116.6 194.246 115.752 195.465L115.434 195.889C115.116 196.313 114.639 196.525 114.162 196.525C113.791 196.525 113.473 196.419 113.155 196.154L108.067 191.702C108.067 191.702 105.576 197.479 98.792 196.154C94.075 195.2 92.856 191.172 93.386 187.833C93.598 186.19 94.234 184.706 95.082 183.805C96.566 182.215 98.474 182.003 99.852 182.056C98.474 181.632 96.513 180.519 95.771 177.763C95.294 176.014 95.4 174.265 96.036 172.887C97.043 170.714 99.322 169.336 102.555 169.707C107.908 170.396 108.014 177.975 108.014 177.975C108.014 177.975 109.869 172.834 114.957 175.06C119.409 177.021 118.137 182.957 115.116 185.289C113.526 186.508 112.148 186.773 112.148 186.773L115.699 191.49Z" fill="#E1ECFF"/>
<path d="M104.198 183.01C104.198 183.01 102.025 182.586 99.905 182.003C98.527 181.579 96.566 180.519 95.771 177.71C95.294 175.961 95.4 174.212 96.036 172.834C96.354 174.689 97.2021 177.604 99.2691 179.512C102.502 182.48 104.198 183.01 104.198 183.01Z" fill="#C5DFFF"/>
<path d="M115.434 195.836C115.116 196.26 114.639 196.472 114.162 196.472C113.791 196.472 113.473 196.366 113.155 196.101L108.067 191.649C108.067 191.649 105.576 197.426 98.792 196.101C94.075 195.147 92.856 191.119 93.386 187.78C94.128 189.37 95.771 191.172 99.534 191.808C107.06 193.133 107.272 188.416 107.272 188.416L115.434 195.836Z" fill="#C5DFFF"/>
<path d="M135.627 179.776C134.938 179.776 132.659 179.617 130.592 177.709C128.525 175.801 127.465 172.78 127.412 168.805C127.306 159.424 125.504 158.152 123.543 157.569C120.787 156.774 117.819 157.834 117.819 157.834C116.759 158.258 115.593 157.728 115.169 156.668C114.745 155.608 115.275 154.442 116.335 154.018C116.494 153.965 120.522 152.428 124.656 153.594C130.168 155.184 131.387 160.537 131.44 168.699C131.493 171.455 132.129 173.522 133.242 174.635C134.302 175.642 135.521 175.642 135.521 175.642C136.634 175.536 137.588 176.49 137.641 177.603C137.694 178.716 136.846 179.67 135.733 179.723C135.786 179.776 135.733 179.776 135.627 179.776Z" fill="#FF97C9"/>
<path d="M133.984 151.263C133.454 151.74 131.917 153.436 131.705 156.192C131.546 159.001 132.818 161.916 135.521 164.884C141.828 171.774 141.457 173.947 140.397 175.696C138.913 178.187 136.051 179.406 136.051 179.406C134.991 179.83 134.514 180.996 134.938 182.056C135.362 183.116 136.528 183.593 137.588 183.169C137.747 183.116 141.775 181.473 143.948 177.763C146.863 172.781 144.054 168.117 138.595 162.075C136.74 160.061 135.786 158.1 135.839 156.51C135.892 155.026 136.793 154.231 136.846 154.178C137.694 153.489 137.747 152.164 137.005 151.316C136.263 150.468 135.044 150.362 134.143 151.104C134.09 151.157 134.037 151.21 133.984 151.263Z" fill="#99ADF9"/>
<path d="M227.9 163.398C225.886 163.398 223.66 162.762 221.646 161.172C218.201 158.522 215.922 160.324 215.922 160.377C215.074 161.119 213.749 161.013 213.06 160.112C212.318 159.264 212.424 157.939 213.325 157.25C214.968 155.872 219.367 154.229 224.19 157.939C226.787 159.953 229.543 159.423 230.603 158.416C231.61 157.515 232.193 154.918 232.299 153.381C232.352 152.268 233.359 151.367 234.472 151.473C235.585 151.526 236.433 152.533 236.38 153.646C236.327 154.176 235.956 159.105 233.359 161.437C232.034 162.656 230.073 163.398 227.9 163.398Z" fill="#99ADF9"/>
<path d="M226.84 188.627L243.747 207.548C243.747 207.548 238.818 199.068 234.578 193.715C230.126 188.203 226.84 188.627 226.84 188.627Z" fill="#E1ECFF"/>
<path d="M240.143 197.319C240.143 197.319 235.797 192.125 235.161 191.33C233.465 189.263 232.246 188.627 232.246 188.627C232.246 188.627 233.783 188.415 235.797 190.959C237.811 193.45 240.143 197.319 240.143 197.319Z" fill="#E1ECFF"/>
<path d="M214.226 179.669L221.858 166.525L217.3 178.662L224.031 185.34L214.226 179.669Z" fill="#FEC272"/>
<path d="M226.151 173.097L215.18 178.98L217.883 179.987L226.151 173.097Z" fill="#FEC272"/>
<path d="M115.328 149.937L111.353 145.326C110.876 144.743 110.929 143.895 111.512 143.365C112.095 142.888 112.943 142.941 113.473 143.524C113.579 143.63 113.632 143.736 113.685 143.842L116.229 149.354C116.335 149.619 116.229 149.937 115.964 150.043C115.752 150.202 115.487 150.149 115.328 149.937Z" fill="#FEC272"/>
<path d="M111.671 154.972L104.198 155.714C103.456 155.767 102.767 155.237 102.714 154.495C102.661 153.753 103.191 153.064 103.933 153.011C104.039 153.011 104.145 153.011 104.251 153.011L111.671 153.912C111.989 153.965 112.148 154.23 112.148 154.495C112.095 154.76 111.936 154.972 111.671 154.972Z" fill="#FEC272"/>
<path d="M114.957 161.12L111.3 165.678C110.823 166.261 109.975 166.367 109.392 165.89C108.809 165.413 108.703 164.565 109.18 163.982C109.233 163.876 109.339 163.77 109.445 163.717L114.215 160.325C114.48 160.166 114.798 160.219 115.01 160.431C115.169 160.643 115.116 160.908 114.957 161.12Z" fill="#FEC272"/>
<path d="M137.111 147.235L139.92 143.525C140.291 143.048 140.927 142.995 141.404 143.313C141.881 143.684 141.934 144.32 141.616 144.797C141.563 144.85 141.51 144.956 141.404 145.009L137.694 147.818C137.535 147.977 137.27 147.924 137.111 147.765C137.005 147.606 137.005 147.394 137.111 147.235Z" fill="#FEC272"/>
<path d="M132.765 145.327L130.963 139.868C130.804 139.338 131.069 138.702 131.652 138.543C132.182 138.384 132.818 138.649 132.977 139.232C132.977 139.285 133.03 139.391 133.03 139.444L133.56 145.168C133.56 145.38 133.401 145.592 133.189 145.592C132.977 145.592 132.818 145.486 132.765 145.327Z" fill="#FEC272"/>
<path d="M128.684 148.772L124.656 146.758C124.126 146.493 123.914 145.857 124.179 145.327C124.444 144.797 125.08 144.585 125.61 144.85C125.716 144.903 125.769 144.956 125.875 145.009L129.214 148.03C129.373 148.189 129.426 148.454 129.267 148.666C129.055 148.825 128.843 148.878 128.684 148.772Z" fill="#FEC272"/>
<path d="M235.585 141.881L234.631 147.34C234.578 147.658 234.313 147.817 233.995 147.764C233.73 147.711 233.571 147.499 233.518 147.287L232.829 141.775C232.723 141.033 233.253 140.344 234.048 140.238C234.79 140.132 235.479 140.662 235.585 141.457C235.638 141.616 235.638 141.722 235.585 141.881Z" fill="#FEC272"/>
<path d="M245.178 147.022L239.613 150.679C239.242 150.891 238.765 150.838 238.553 150.467C238.341 150.149 238.394 149.725 238.659 149.46L243.535 144.902C244.065 144.372 244.966 144.425 245.443 144.955C245.973 145.485 245.92 146.386 245.39 146.863C245.284 146.916 245.231 146.969 245.178 147.022Z" fill="#FEC272"/>
<path d="M244.277 158.682L239.507 156.403C239.189 156.244 239.03 155.873 239.189 155.502C239.295 155.237 239.613 155.078 239.878 155.131L245.072 156.032C245.814 156.138 246.344 156.88 246.185 157.622C246.079 158.364 245.337 158.894 244.595 158.735C244.542 158.788 244.436 158.735 244.277 158.682Z" fill="#FEC272"/>
<path d="M169.6 132.711C169.6 132.711 147.287 159.423 146.439 158.734C146.227 158.575 145.856 157.356 145.379 155.395C144.107 149.83 142.358 138.17 142.146 125.768C141.881 109.073 142.305 103.985 146.757 101.918C150.043 100.381 159 115.168 164.883 125.079C167.003 128.471 168.646 131.28 169.6 132.711Z" fill="#FF97C9"/>
<path d="M169.6 132.711C169.6 132.711 147.287 159.423 146.439 158.734C146.227 158.575 145.856 157.356 145.379 155.395C147.552 149.83 150.202 143.947 153.117 139.495C157.834 132.393 162.074 127.782 164.883 125.079C167.003 128.471 168.646 131.28 169.6 132.711Z" fill="#FC75BC"/>
<path d="M246.874 224.561C245.496 227.423 232.723 223.448 222.282 219.844C220.268 219.155 218.307 218.466 216.505 217.83C212.371 216.399 209.615 212.477 209.615 208.078C209.668 197.849 208.714 181.578 210.675 180.73C213.007 179.67 224.561 191.065 235.108 203.308C246.026 215.975 248.941 220.162 246.874 224.561Z" fill="#FF97C9"/>
<path d="M222.282 219.844C220.268 219.155 218.307 218.466 216.505 217.83C212.371 216.399 209.615 212.477 209.615 208.078C209.668 197.849 208.714 181.578 210.675 180.73C210.728 180.73 215.074 194.192 218.042 204.792C219.738 210.94 221.169 215.975 222.282 219.844Z" fill="#FC75BC"/>
<path d="M214.65 154.23C214.279 168.699 212.159 192.761 203.52 216.611C196.047 237.281 189.581 251.008 185.288 259.117C181.737 265.795 179.67 268.763 179.67 268.763C179.67 268.763 174.052 271.572 163.24 272.42C157.198 272.897 149.566 272.791 140.397 271.254C114.745 266.961 112.042 258.905 112.042 258.905C112.042 258.905 111.671 254.294 112.89 245.231C114.427 233.571 118.667 214.597 129.744 188.68C142.199 159.689 156.403 142.623 165.201 133.984C170.395 128.896 173.734 126.723 173.734 126.723C173.734 126.723 180.624 123.914 194.881 128.366C200.552 130.115 204.845 132.394 207.866 134.567C212.53 137.8 214.438 140.662 214.438 140.662C214.438 140.662 214.915 145.856 214.65 154.23Z" fill="#E1ECFF"/>
<path d="M214.65 154.23C214.279 168.699 212.159 192.761 203.52 216.611C196.047 237.281 189.581 251.008 185.288 259.117C181.737 265.795 179.67 268.763 179.67 268.763C179.67 268.763 174.052 271.572 163.24 272.42C170.13 262.986 180.359 246.609 190.535 221.805C207.071 181.525 208.078 146.121 207.919 134.567C212.583 137.8 214.491 140.662 214.491 140.662C214.491 140.662 214.915 145.856 214.65 154.23Z" fill="#C5DFFF"/>
<path d="M118.932 242.952C118.773 242.952 118.667 242.952 118.508 242.899C117.024 242.687 116.017 241.256 116.229 239.772C116.388 238.871 119.78 217.035 129.161 195.04C138.542 173.098 145.962 162.339 146.28 161.862C147.128 160.643 148.824 160.325 150.096 161.173C151.315 162.021 151.633 163.717 150.785 164.989C150.732 165.095 143.312 175.801 134.196 197.16C125.08 218.519 121.635 240.355 121.635 240.567C121.37 241.998 120.204 242.952 118.932 242.952Z" fill="#F8FBFF"/>
<path d="M214.65 154.231C212.795 152.588 210.41 150.68 207.548 148.719C206.382 147.924 205.11 147.076 203.732 146.228C202.99 145.804 202.248 145.327 201.453 144.903C198.326 143.101 194.775 141.405 190.906 139.921C190.588 139.815 190.323 139.709 190.005 139.603C189.422 139.391 188.892 139.179 188.362 139.02C183.91 137.43 179.988 136.37 176.649 135.628C175.695 135.416 174.741 135.257 173.893 135.045C170.183 134.356 167.321 134.144 165.307 134.038C170.501 128.95 173.84 126.777 173.84 126.777C173.84 126.777 175.96 125.929 180.306 125.929C181.26 125.929 182.32 125.982 183.486 126.088C186.242 126.3 189.581 126.883 193.503 127.996C193.98 128.155 194.51 128.261 194.987 128.42C195.358 128.526 195.729 128.632 196.1 128.791C199.174 129.851 201.824 131.017 204.05 132.183C204.951 132.66 205.746 133.137 206.541 133.667C207.071 133.985 207.495 134.303 207.972 134.621C212.636 137.854 214.544 140.716 214.544 140.716C214.544 140.716 214.915 145.857 214.65 154.231Z" fill="#1C3177"/>
<path d="M214.65 154.231C212.795 152.588 210.41 150.68 207.548 148.719C207.972 142.518 207.972 137.695 207.972 134.621C212.636 137.854 214.544 140.716 214.544 140.716C214.544 140.716 214.915 145.857 214.65 154.231Z" fill="#142966"/>
<path d="M206.541 133.667L204.103 145.592C204.05 145.857 203.944 146.069 203.732 146.281C202.99 145.857 202.248 145.38 201.453 144.956L204.05 132.236C204.951 132.713 205.799 133.19 206.541 133.667Z" fill="#142966"/>
<path d="M196.1 128.791L190.906 139.921C190.588 139.815 190.323 139.709 190.005 139.603C189.422 139.391 188.892 139.179 188.362 139.02L193.45 127.996C193.927 128.155 194.457 128.261 194.934 128.42C195.358 128.579 195.729 128.685 196.1 128.791Z" fill="#142966"/>
<path d="M183.486 126.088C183.433 126.194 183.38 126.3 183.327 126.406L176.649 135.628C175.695 135.416 174.741 135.257 173.893 135.045C173.946 134.833 173.999 134.621 174.158 134.409L180.306 125.876C181.26 125.929 182.32 125.982 183.486 126.088Z" fill="#142966"/>
<path d="M145.137 252.292C157.597 256.567 172.502 246.026 178.429 228.749C184.356 211.472 179.061 194.001 166.601 189.727C154.142 185.452 139.237 195.993 133.31 213.27C127.383 230.547 132.678 248.018 145.137 252.292Z" fill="#C5DFFF"/>
<path d="M146.844 250.936C159.303 255.21 174.155 244.827 180.015 227.743C185.876 210.66 180.526 193.346 168.067 189.072C155.608 184.798 140.756 195.181 134.896 212.265C129.035 229.348 134.385 246.662 146.844 250.936Z" fill="#1C3177"/>
<path d="M148.078 245.02C157.963 248.411 169.818 239.96 174.558 226.144C179.298 212.328 175.127 198.378 165.243 194.988C155.358 191.597 143.503 200.048 138.763 213.864C134.023 227.68 138.194 241.629 148.078 245.02Z" fill="#99ADF9"/>
<path d="M153.09 211.969C155.914 212.938 159.305 210.514 160.663 206.554C162.021 202.595 160.833 198.6 158.009 197.631C155.185 196.662 151.794 199.087 150.436 203.046C149.078 207.005 150.266 211 153.09 211.969Z" fill="#C5DFFF"/>
<path d="M146.613 229.381C148.136 229.904 149.956 228.621 150.678 226.517C151.4 224.413 150.75 222.283 149.228 221.761C147.705 221.239 145.885 222.521 145.163 224.625C144.441 226.729 145.091 228.859 146.613 229.381Z" fill="#C5DFFF"/>
<path d="M174.582 226.152C169.812 239.985 157.993 248.412 148.082 245.02C142.888 243.218 139.231 238.501 137.694 232.406C138.966 233.254 140.344 233.996 141.828 234.473C154.124 238.713 168.911 228.166 174.794 210.941C175.165 209.881 175.483 208.821 175.748 207.761C177.073 213.22 176.808 219.739 174.582 226.152Z" fill="#7C99F2"/>
<path d="M185.341 259.17C181.79 265.848 179.723 268.816 179.723 268.816C179.723 268.816 174.105 271.625 163.293 272.473C157.251 272.95 149.619 272.844 140.45 271.307C130.963 269.717 124.656 267.597 120.416 265.583C113.208 262.138 112.095 258.958 112.095 258.958C112.095 258.958 111.724 254.347 112.943 245.284C115.169 247.351 118.137 249.683 122.059 251.856C128.101 255.195 136.316 258.322 147.499 259.965C155.873 261.184 163.876 261.343 171.031 260.866C176.331 260.601 181.154 259.912 185.341 259.17Z" fill="#FF97C9"/>
<path d="M185.341 259.17C181.79 265.848 179.723 268.816 179.723 268.816C179.723 268.816 174.105 271.625 163.293 272.473C165.572 269.346 168.169 265.53 171.031 260.866C176.331 260.601 181.154 259.912 185.341 259.17Z" fill="#FC75BC"/>
<path d="M122.059 251.909L120.416 265.636C113.208 262.191 112.095 259.011 112.095 259.011C112.095 259.011 111.724 254.4 112.943 245.337C115.169 247.404 118.137 249.683 122.059 251.909Z" fill="#FCB6DA"/>
</g>
<defs>
<clipPath id="clip0_1_4965">
<rect width="318" height="318" rx="15.9" fill="white"/>
</clipPath>
</defs>
</svg>
