<svg width="158" height="224" viewBox="0 0 158 224" fill="none" xmlns="http://www.w3.org/2000/svg">
<path d="M40.1921 66.8349L40.1045 67.4652C39.8677 69.2358 38.4587 70.5298 36.846 70.5298C36.7063 70.5298 36.5642 70.5196 36.4197 70.5016C34.6342 70.2454 33.3673 68.5004 33.578 66.5684C33.5851 66.5172 33.6373 66.143 33.6941 65.7407L33.8077 64.9413C36.1829 44.0707 55.0259 28.8963 78.6121 28.8963L79.4054 28.904C99.1671 28.904 113.878 38.2055 123.099 56.5521C123.966 58.2765 123.376 60.4392 121.78 61.377C120.186 62.32 118.188 61.6743 117.321 59.9523C109.229 43.8478 96.8156 36.0172 79.3769 36.0172L78.5837 36.0121C58.7225 36.0121 42.2666 48.8367 40.3319 65.8432C40.32 65.938 40.2537 66.4044 40.1921 66.8349Z" fill="url(#paint0_linear_1_4869)"/>
<path d="M81.835 105.806C110.404 113.601 130.622 121.636 130.622 154.204C130.622 179.052 109.549 196.404 79.3769 196.404C57.2779 196.404 38.21 184.327 29.6115 164.887C28.8276 163.114 29.5191 160.989 31.1578 160.141C32.7966 159.291 34.7597 160.044 35.5436 161.817C43.0386 178.762 59.8331 189.288 79.3769 189.288C105.677 189.288 124.046 174.862 124.046 154.204C124.046 127.579 110.013 120.834 80.2271 112.704L76.7413 111.72C68.1995 109.268 53.8987 105.16 44.0948 95.1542C42.7757 93.8064 42.7142 91.5541 43.9598 90.1243C45.2054 88.6996 47.2869 88.6304 48.6083 89.9757C57.1953 98.7395 70.4756 102.558 78.4172 104.842L78.4297 104.845L81.835 105.806Z" fill="url(#paint1_linear_1_4869)"/>
<path d="M105.717 56.0729C106.932 57.5335 106.823 59.7832 105.476 61.0977C104.846 61.7127 104.06 62.0125 103.276 62.0125C102.376 62.0125 101.478 61.6179 100.832 60.8364C96.1407 55.2017 90.3459 52.3241 82.5975 51.7809C80.7859 51.6528 79.4101 49.9616 79.5285 47.9988C79.6469 46.0361 81.2312 44.5653 83.0238 44.6806C92.5933 45.3519 99.8041 48.9726 105.717 56.0729Z" fill="url(#paint2_linear_1_4869)"/>
<path d="M145.253 154.304C145.253 163.411 143.067 171.936 138.755 179.649C138.136 180.756 137.049 181.365 135.939 181.365C135.356 181.365 134.769 181.199 134.239 180.85C132.685 179.833 132.188 177.647 133.128 175.966C136.81 169.381 138.676 162.091 138.676 154.304C138.676 114.436 109.287 106.412 83.3575 99.3322L83.353 99.3309L80.6747 98.5801L80.667 98.5779C68.7001 95.1262 48.6794 89.3513 48.6794 69.1051C48.7599 65.3436 49.5698 61.9151 51.0877 58.8403C51.9426 57.103 53.9294 56.4521 55.535 57.372C57.1382 58.2996 57.7444 60.4546 56.8896 62.1867C55.8594 64.2776 55.31 66.6299 55.2556 69.1871C55.2579 82.7575 68.0811 87.585 82.3678 91.7053L84.9633 92.433C110.406 99.377 145.253 108.891 145.253 154.304Z" fill="url(#paint3_linear_1_4869)"/>
<path d="M119.102 195.72C119.959 197.452 119.357 199.61 117.754 200.535C106.842 206.856 93.5713 210.195 79.3769 210.195C51.2629 210.195 25.652 193.721 15.6492 169.202C14.9364 167.457 14.4723 165.627 14.271 163.764C14.0579 161.814 15.3485 160.046 17.153 159.818C18.9504 159.575 20.5891 160.982 20.8022 162.937C20.9277 164.092 21.2166 165.235 21.6642 166.329C30.6345 188.309 53.8252 203.082 79.3769 203.082C92.4914 203.082 104.69 200.03 114.652 194.262C116.255 193.334 118.244 193.988 119.102 195.72Z" fill="url(#paint4_linear_1_4869)"/>
<path d="M117.598 154.637C117.598 160.654 115.355 166.224 111.114 170.742C104.536 177.752 93.3676 181.883 81.1009 181.883C80.7931 181.883 80.4876 181.88 80.1774 181.875C72.6705 181.757 65.4573 179.807 59.324 176.236C54.4465 173.397 51.4013 169.511 49.5802 167.186L49.5793 167.185C49.3093 166.839 49.063 166.527 48.8451 166.258C47.6374 164.789 47.7582 162.542 49.1127 161.235C50.4744 159.929 52.5512 160.057 53.7566 161.527C53.9957 161.818 54.2605 162.155 54.5532 162.527L54.5972 162.583L54.5979 162.584C56.2154 164.649 58.6591 167.77 62.4403 169.971C67.6501 173.002 73.8167 174.66 80.2768 174.76C91.163 174.957 100.986 171.546 106.501 165.671C109.499 162.476 111.022 158.763 111.022 154.637C111.022 150.909 110.266 147.686 108.711 144.782C107.879 143.235 106.792 141.743 105.48 140.357C104.183 138.984 104.159 136.731 105.428 135.325C106.698 133.92 108.779 133.897 110.079 135.268C111.815 137.105 113.269 139.107 114.399 141.216C116.523 145.174 117.598 149.692 117.598 154.637Z" fill="url(#paint5_linear_1_4869)"/>
<path d="M80.5492 120.399C82.311 120.878 83.379 122.815 82.9338 124.719C82.5573 126.333 81.2193 127.407 79.7487 127.407C79.4812 127.407 79.2112 127.371 78.9412 127.297C76.6347 126.669 74.1601 126.051 71.5836 125.462C48.7765 120.266 18.4531 108.819 18.4531 69.6407C18.4531 36.586 43.0504 14.3754 79.6587 14.3754C101.507 14.3754 129.097 27.7484 138.044 57.1132C138.612 58.9812 137.675 60.9901 135.951 61.6076C134.229 62.2226 132.365 61.2053 131.799 59.3399C123.876 33.3344 99.2168 21.4885 79.6587 21.4885C46.9838 21.4885 25.0316 40.8421 25.0316 69.6407C25.0316 95.8794 39.8061 110.946 72.9405 118.5C75.6022 119.107 78.1621 119.748 80.5492 120.399Z" fill="url(#paint6_linear_1_4869)"/>
<path d="M142.908 108.11C153.347 118.354 158 132.601 158 154.304C158 194.685 124.934 223.988 79.3769 223.988C48.6344 223.988 18.948 205.667 5.50195 178.401L5.19646 177.786C4.13792 175.705 1.93798 171.367 0.140593 164.92C-0.382755 163.039 0.600017 161.056 2.34056 160.487C4.07638 159.913 5.91162 160.982 6.43734 162.865C8.0358 168.597 10.0108 172.492 10.9604 174.362L11.3061 175.054C23.6392 200.066 50.993 216.872 79.3769 216.872C121.124 216.872 151.424 190.557 151.424 154.304C151.424 134.517 147.554 122.277 138.492 113.38C137.147 112.058 137.045 109.808 138.264 108.353C139.484 106.903 141.565 106.79 142.908 108.11Z" fill="url(#paint7_linear_1_4869)"/>
<path d="M69.5565 133.349C71.3065 133.879 72.3271 135.84 71.8393 137.733C71.432 139.307 70.1106 140.337 68.6732 140.337C68.3796 140.337 68.0812 140.293 67.7852 140.203L67.7826 140.203C52.3009 135.518 16.0536 124.55 6.35685 88.8841C5.84298 86.9982 6.83993 85.0201 8.58285 84.4666C10.3234 83.9054 12.1539 84.9893 12.6654 86.8726C21.3324 118.761 53.9017 128.613 69.5553 133.349L69.5565 133.349Z" fill="url(#paint8_linear_1_4869)"/>
<path d="M78.0555 7.68499C42.4726 7.68499 15.6729 28.4556 11.138 59.7499C10.8823 61.5051 9.48509 62.7581 7.89373 62.7581C7.72323 62.7581 7.55272 62.7453 7.37748 62.712C5.58484 62.4096 4.35816 60.5904 4.63997 58.6455C9.77162 23.2463 39.9482 -0.137945 79.7109 0.584645C81.5272 0.615393 82.9764 2.23226 82.9484 4.19504C82.9196 6.16038 81.4798 7.67731 79.609 7.69781C79.0904 7.69012 78.5694 7.68499 78.0555 7.68499Z" fill="url(#paint9_linear_1_4869)"/>
<path d="M145.92 57.782C146.015 59.6807 147.467 61.1515 149.202 61.1515C149.262 61.1515 149.321 61.1515 149.38 61.1464C151.194 61.0413 152.587 59.3656 152.489 57.4053C152.269 52.9212 143.162 20.0843 109.774 6.4243C108.074 5.73246 106.177 6.66005 105.535 8.49471C104.893 10.3345 105.75 12.387 107.448 13.0839C136.218 24.8503 145.428 53.1364 145.92 57.782Z" fill="url(#paint10_linear_1_4869)"/>
<defs>
<linearGradient id="paint0_linear_1_4869" x1="133.03" y1="-13.3041" x2="65.5776" y2="217.747" gradientUnits="userSpaceOnUse">
<stop stop-color="#E54DC4"/>
<stop offset="1" stop-color="#A342FF"/>
</linearGradient>
<linearGradient id="paint1_linear_1_4869" x1="133.03" y1="-13.3041" x2="65.5776" y2="217.747" gradientUnits="userSpaceOnUse">
<stop stop-color="#E54DC4"/>
<stop offset="1" stop-color="#A342FF"/>
</linearGradient>
<linearGradient id="paint2_linear_1_4869" x1="133.03" y1="-13.3041" x2="65.5776" y2="217.747" gradientUnits="userSpaceOnUse">
<stop stop-color="#E54DC4"/>
<stop offset="1" stop-color="#A342FF"/>
</linearGradient>
<linearGradient id="paint3_linear_1_4869" x1="133.03" y1="-13.3041" x2="65.5776" y2="217.747" gradientUnits="userSpaceOnUse">
<stop stop-color="#E54DC4"/>
<stop offset="1" stop-color="#A342FF"/>
</linearGradient>
<linearGradient id="paint4_linear_1_4869" x1="133.03" y1="-13.3041" x2="65.5776" y2="217.747" gradientUnits="userSpaceOnUse">
<stop stop-color="#E54DC4"/>
<stop offset="1" stop-color="#A342FF"/>
</linearGradient>
<linearGradient id="paint5_linear_1_4869" x1="133.03" y1="-13.3041" x2="65.5776" y2="217.747" gradientUnits="userSpaceOnUse">
<stop stop-color="#E54DC4"/>
<stop offset="1" stop-color="#A342FF"/>
</linearGradient>
<linearGradient id="paint6_linear_1_4869" x1="133.03" y1="-13.3041" x2="65.5776" y2="217.747" gradientUnits="userSpaceOnUse">
<stop stop-color="#E54DC4"/>
<stop offset="1" stop-color="#A342FF"/>
</linearGradient>
<linearGradient id="paint7_linear_1_4869" x1="133.03" y1="-13.3041" x2="65.5776" y2="217.747" gradientUnits="userSpaceOnUse">
<stop stop-color="#E54DC4"/>
<stop offset="1" stop-color="#A342FF"/>
</linearGradient>
<linearGradient id="paint8_linear_1_4869" x1="133.03" y1="-13.3041" x2="65.5776" y2="217.747" gradientUnits="userSpaceOnUse">
<stop stop-color="#E54DC4"/>
<stop offset="1" stop-color="#A342FF"/>
</linearGradient>
<linearGradient id="paint9_linear_1_4869" x1="133.03" y1="-13.3041" x2="65.5776" y2="217.747" gradientUnits="userSpaceOnUse">
<stop stop-color="#E54DC4"/>
<stop offset="1" stop-color="#A342FF"/>
</linearGradient>
<linearGradient id="paint10_linear_1_4869" x1="133.03" y1="-13.3041" x2="65.5776" y2="217.747" gradientUnits="userSpaceOnUse">
<stop stop-color="#E54DC4"/>
<stop offset="1" stop-color="#A342FF"/>
</linearGradient>
</defs>
</svg>
